<svg aria-hidden="true" style="position:absolute;width:0;height:0" xmlns="http://www.w3.org/2000/svg" overflow="hidden"><defs><symbol id="icon-airplane-flight" viewBox="0 0 32 32"><path fill="var(--color1, #fff)" d="M30.819.078l-3.386 1.541c-.217.1-.417.237-.587.407l-5.518 5.521L2.325 5.268a1.128 1.128 0 00-.934.324L.333 6.65A1.13 1.13 0 00.67 8.482l13.618 6.105-3.91 3.91H3.549c-.3 0-.587.12-.801.33l-.57.574a1.13 1.13 0 00.354 1.838l5.761 2.469 2.469 5.762a1.13 1.13 0 001.838.354l.574-.574c.214-.214.33-.5.33-.801V21.62l3.91-3.91 6.105 13.622a1.13 1.13 0 001.832.337l1.058-1.058c.247-.247.364-.59.324-.934l-2.282-19.003 5.521-5.521c.17-.17.307-.367.407-.587L31.92 1.18c.324-.697-.397-1.421-1.101-1.101z"/></symbol><symbol id="icon-Arrow" viewBox="0 0 89 32"><path fill="var(--color2, #c8a35f)" d="M88.081 14.586a2 2 0 010 2.829L75.353 30.143a2 2 0 11-2.828-2.828l11.314-11.314L72.525 4.687a2 2 0 112.828-2.828l12.728 12.728zM0 14h86.667v4H0v-4z"/></symbol><symbol id="icon-logo" viewBox="0 0 111 32"><path fill="var(--color2, #c8a35f)" d="M25.546 23.558a12.59 12.59 0 01-1.505 2.11l.015.015-.533.535a12.462 12.462 0 01-8.897 3.703c-3.351 0-6.502-1.305-8.871-3.675a12.469 12.469 0 01-3.653-9.619c.002-.034.003-.068.007-.104v-.01l.005-.068v-.012c.003-.051.009-.104.014-.155a3.45 3.45 0 01.012-.133l.021-.202.015-.126.022-.179.015-.102c.007-.056.017-.12.027-.181l.017-.106c.005-.031.01-.062.017-.092l.024-.13a4.46 4.46 0 01.024-.125c.01-.05.019-.097.031-.149.072-.342.161-.685.261-1.02l.003-.009c.012-.044.026-.089.041-.132l.036-.114c.072-.219.15-.441.234-.654l.036-.092c.014-.032.026-.067.041-.103l.055-.133.048-.111.007-.017.07-.155a12.418 12.418 0 011.193-2.076l.072-.097c.05-.068.099-.137.15-.202l.075-.097c.055-.072.111-.142.166-.21.032-.039.065-.082.099-.121l.099-.118c.032-.039.068-.08.103-.12l.118-.135-1.473-1.475a14.535 14.535 0 00-3.786 9.815c0 3.908 1.521 7.58 4.284 10.343s6.435 4.284 10.343 4.284c3.92 0 7.602-1.531 10.367-4.309a14.685 14.685 0 002.071-2.616l-1.517-1.516z"/><path fill="var(--color1, #fff)" d="M6.826 25.174a10.96 10.96 0 007.8 3.231l.277-.003c.046 0 .091-.002.137-.003h.007l.203-.01.162-.01.073-.005.038-.003c.05-.003.099-.009.15-.014.044-.003.085-.007.128-.012l.084-.009.056-.007.109-.014c.137-.017.27-.036.402-.058.038-.007.073-.014.109-.019l.012-.002.085-.015.014-.003a6.262 6.262 0 00.405-.084c.065-.014.13-.031.195-.046l.009-.002a.515.515 0 00.05-.012c.048-.012.091-.024.135-.034l.108-.029c.031-.009.058-.015.084-.024.026-.007.046-.012.065-.019l.015-.005a6.858 6.858 0 00.207-.063c.032-.01.06-.019.091-.027.092-.031.185-.061.275-.094l.073-.026.019-.007.089-.032.126-.048.094-.036c.056-.022.108-.043.159-.065l.154-.065.14-.061.073-.032.022-.01.113-.053c.232-.111.461-.229.682-.355.024-.014.046-.027.07-.039l.152-.089.253-.155c.111-.072.227-.147.352-.232l.102-.072.014-.01.077-.055.007-.005.056-.041.007-.005a2.08 2.08 0 00.094-.07c.036-.026.07-.053.103-.079l.063-.05.024-.019c.034-.027.07-.055.104-.084l.106-.085.009-.007c.067-.055.132-.111.198-.167l.06-.053-1.475-1.476a8.918 8.918 0 01-5.799 2.131c-4.935 0-8.95-4.015-8.95-8.95a8.89 8.89 0 012.648-6.356 9.025 9.025 0 012.799-1.881L9.564 7.575a11.055 11.055 0 00-2.71 1.979 10.942 10.942 0 00-3.258 7.822c0 2.947 1.148 5.717 3.231 7.802z"/><path fill="var(--color1, #fff)" d="M27.144 14.626c0-3.908-1.521-7.58-4.284-10.343S16.423-.001 12.516-.001c-3.92 0-7.602 1.529-10.365 4.309A14.715 14.715 0 00.078 6.924l1.519 1.519a12.59 12.59 0 011.505-2.11l-.015-.015.533-.535a12.46 12.46 0 018.897-3.703c3.351 0 6.502 1.305 8.871 3.675a12.465 12.465 0 013.653 9.619c-.002.032-.003.068-.007.104l-.005.077v.012c-.003.051-.009.104-.014.155a3.546 3.546 0 01-.012.135l-.021.202-.015.126-.022.179-.015.101c-.007.058-.017.12-.027.183l-.017.106c-.005.031-.01.061-.017.092l-.024.13a1.751 1.751 0 01-.026.125 12.592 12.592 0 01-.292 1.169c-.014.046-.027.094-.044.142l-.036.114c-.072.22-.15.441-.234.654l-.036.091-.041.103-.055.133a4.178 4.178 0 01-.048.111l-.007.017-.07.155a12.418 12.418 0 01-1.193 2.076l-.07.097-.15.202-.075.097a9.629 9.629 0 01-.166.21c-.032.039-.065.082-.099.121-.029.036-.06.074-.092.111l-.007.007c-.034.039-.068.08-.104.12l-.118.135 1.473 1.475a14.533 14.533 0 003.788-9.818z"/><path fill="var(--color2, #c8a35f)" d="M16.019 22.866l1.565 1.565a11.055 11.055 0 002.71-1.979 10.952 10.952 0 003.255-7.824 10.96 10.96 0 00-3.231-7.8 10.959 10.959 0 00-7.802-3.233l-.277.003c-.046 0-.091.002-.137.003h-.005l-.203.01-.162.01-.073.005-.038.003c-.048.003-.099.009-.149.014l-.128.014-.084.009-.043.005-.014.002c-.036.003-.072.009-.108.014-.137.017-.27.038-.402.058l-.109.019-.012.002-.084.015-.019.003-.109.021c-.103.019-.2.039-.296.062-.065.014-.13.031-.195.046l-.009.002a.515.515 0 00-.05.012c-.048.012-.091.024-.135.034l-.108.029c-.031.009-.058.015-.085.024l-.065.019-.015.005a6.858 6.858 0 00-.207.063c-.033.01-.06.019-.091.027-.092.031-.185.061-.275.094a2.875 2.875 0 00-.072.026l-.021.007-.085.032a1.875 1.875 0 00-.13.05l-.094.038a5.197 5.197 0 00-.159.065l-.154.065-.14.061-.073.032-.022.01-.113.053c-.232.111-.461.229-.682.355l-.07.039a6.774 6.774 0 00-.144.084l-.159.097a11.06 11.06 0 00-.451.295l-.094.065-.021.014-.08.058-.01.007a.725.725 0 01-.053.039l-.007.005a2.08 2.08 0 00-.094.07c-.036.026-.068.053-.103.079l-.063.05-.024.019c-.034.027-.07.055-.104.084l-.114.094a7.613 7.613 0 00-.198.167c-.021.017-.039.034-.06.053l1.476 1.476a8.92 8.92 0 015.799-2.132c4.935 0 8.95 4.015 8.95 8.95a8.89 8.89 0 01-2.648 6.356 9.07 9.07 0 01-2.797 1.88z"/><path  d="M40.292 21.033l-.427 1.29h.863l-.427-1.29h-.009zM40.91 13.739c-.145.65-.422 1.145-.822 1.485-.409.327-.904.495-1.494.495a2.68 2.68 0 01-1.349-.363c-.409-.241-.713-.613-.904-1.108-.209-.495-.304-1.086-.304-1.749 0-.518.086-1.026.254-1.508a2.33 2.33 0 01.858-1.158c.409-.277.927-.422 1.531-.422.531 0 .963.123 1.313.386.35.254.613.663.795 1.231l.023.059 1.208-.277-.023-.073c-.227-.749-.627-1.34-1.194-1.762-.568-.409-1.267-.613-2.098-.613-.722 0-1.399.159-2.017.481a3.471 3.471 0 00-1.408 1.449c-.327.627-.495 1.372-.495 2.207 0 .772.145 1.508.436 2.171.291.677.722 1.208 1.29 1.558.554.363 1.29.545 2.185.545.858 0 1.594-.241 2.194-.699.604-.459 1.013-1.145 1.245-2.026l.023-.073-1.217-.3-.027.064zM51.96 8.893a4.04 4.04 0 00-2.076-.545c-1.172 0-2.135.386-2.87 1.145s-1.108 1.835-1.108 3.17c0 .713.159 1.385.481 2.026.313.64.786 1.145 1.399 1.522.613.372 1.317.554 2.085.554.722 0 1.399-.168 2.012-.509.627-.327 1.108-.831 1.458-1.485.336-.64.509-1.385.509-2.207 0-.809-.168-1.531-.481-2.171a3.614 3.614 0 00-1.408-1.499zm-.132 6.004c-.509.54-1.172.822-1.953.822a2.63 2.63 0 01-1.944-.808c-.509-.545-.772-1.29-.772-2.23 0-1.172.277-2.026.809-2.521s1.181-.749 1.917-.749c.531 0 .999.132 1.422.386.409.254.736.627.954 1.099s.327 1.036.327 1.676c0 .999-.254 1.785-.758 2.325zM64.396 8.698l-1.944 5.537c-.159.445-.277.795-.363 1.072l-.327-.963-1.939-5.718h-.132v2.957l1.799 5.187h1.072l1.835-5.178V8.699zM59.254 8.625h-1.181v8.144h1.181V8.625zM65.999 8.625h-1.172v8.144h1.172V8.625zM71.44 8.625h-1.217v8.144h1.217V8.625zM76.336 9.892c-.182-.336-.399-.613-.685-.795a2.384 2.384 0 00-1.027-.386c-.291-.059-.713-.086-1.254-.086h-1.494V9.71h1.581c.481 0 .808.023.99.073.264.073.482.218.641.445.168.227.241.495.241.822 0 .436-.131.772-.409 1.013s-.758.363-1.435.363h-1.603v1.099h1.594c1.158 0 1.99-.254 2.435-.736.458-.481.686-1.072.686-1.771a2.558 2.558 0 00-.259-1.126zM83.994 8.625l-3.183 8.144h1.29l.363-.954h-.014l.918-2.471.195-.509.677-1.799h.013c.145-.4.264-.809.364-1.208.122.386.291.858.495 1.385l.822 2.121h-2.085l-.372.999h2.848l.954 2.425h1.385l-3.402-8.144h-1.267v.009zM93.891 8.625h-1.135v8.144h1.135V8.625zM98.133 14.743l-.023-.036v2.062h1.204V8.625h-1.181v6.118zM94.322 11.232l3.352 4.919v-2.085l-3.352-4.91v2.076zM109.855 8.625l-1.603 2.389c-.314.472-.591.918-.831 1.303v-.014l-.677 1.026v3.438h1.231v-3.438l3.315-4.705h-1.435zM107.167 11.881l-.504-.809-1.63-2.448h-1.495l2.943 4.319.686-1.063zM34.783 20.829h.809v2.553h.45v-2.553h.809v-.4h-2.067v.4z"/><path  d="M40.11 20.429l-1.072 2.952h.472l.227-.659h1.122l.227.659h.472l-1.072-2.952h-.377zm-.245 1.894l.427-1.29h.009l.427 1.29h-.863zM45.243 22.178h.599v.154a.63.63 0 01-.173.45.576.576 0 01-.431.177.534.534 0 01-.273-.068.462.462 0 01-.186-.15.48.48 0 01-.114-.25c-.023-.104-.032-.3-.032-.59s.009-.486.032-.595a.503.503 0 01.114-.245.508.508 0 01.186-.15.61.61 0 01.636.059.66.66 0 01.2.304h.472c-.045-.245-.159-.454-.341-.622s-.413-.25-.695-.254a1.023 1.023 0 00-.581.168.995.995 0 00-.345.363.827.827 0 00-.1.282 5.251 5.251 0 00-.032.69c0 .336.009.568.032.686.009.064.023.118.041.159s.036.082.059.127c.073.136.186.254.345.359.154.109.35.163.581.168.3-.005.55-.109.749-.304.195-.2.3-.445.304-.745v-.599h-1.049v.427zM49.748 20.429h-.445v2.952h1.885v-.422h-1.44v-2.53zM54.544 20.429h-.445v2.952h.445v-2.952zM59.418 22.527h-.005l-1.34-2.098h-.418v2.952h.445v-2.098h.009l1.335 2.098h.422v-2.952h-.45v2.098zM62.979 23.381h1.885v-.422h-1.435v-.868h1.226v-.395h-1.226v-.845h1.435v-.422h-1.885v2.952zM72.212 22.178h.6v.154a.63.63 0 01-.173.45.575.575 0 01-.431.177.534.534 0 01-.273-.068.462.462 0 01-.186-.15.471.471 0 01-.113-.25c-.023-.104-.032-.3-.032-.59s.009-.486.032-.595a.511.511 0 01.113-.245.516.516 0 01.186-.15.6.6 0 01.636.059.66.66 0 01.2.304h.472a1.101 1.101 0 00-.34-.622c-.177-.168-.414-.25-.695-.254a1.028 1.028 0 00-.582.168.995.995 0 00-.345.363.806.806 0 00-.1.282 5.251 5.251 0 00-.032.69c0 .336.009.568.032.686.009.064.023.118.041.159s.036.082.059.127a.994.994 0 00.345.359c.154.109.35.163.582.168.3-.005.55-.109.749-.304.195-.2.3-.445.304-.745v-.599h-1.049v.427zM78.149 20.933a.97.97 0 00-.337-.363 1.043 1.043 0 00-.586-.168 1.028 1.028 0 00-.582.168 1.004 1.004 0 00-.345.363.807.807 0 00-.099.282 5.251 5.251 0 00-.032.69c0 .336.009.568.032.686.009.064.022.118.04.159l.059.127c.073.136.186.254.345.359.154.109.35.163.582.168.237-.005.431-.064.586-.168s.269-.223.337-.359c.049-.073.086-.168.104-.286s.027-.345.027-.686a5.61 5.61 0 00-.027-.69.7.7 0 00-.104-.282zm-.35 1.563a.566.566 0 01-.118.25.57.57 0 01-.454.218.537.537 0 01-.273-.068.462.462 0 01-.186-.15.471.471 0 01-.113-.25c-.023-.104-.032-.3-.032-.59s.009-.486.032-.595a.502.502 0 01.113-.245.508.508 0 01.186-.15.639.639 0 01.273-.064.66.66 0 01.277.064.57.57 0 01.177.15c.059.064.1.145.118.245.018.104.032.304.032.595s-.01.486-.032.59zM81.287 23.381h1.885v-.422h-1.436v-.868h1.226v-.395h-1.226v-.845h1.436v-.422h-1.885v2.952zM87.183 21.697c-.141-.018-.25-.032-.332-.045-.145-.027-.25-.077-.318-.145s-.1-.145-.1-.232c.005-.141.05-.25.15-.318a.566.566 0 01.345-.105c.268.005.509.082.731.227l.25-.368c-.272-.195-.59-.3-.958-.304-.305.005-.541.082-.709.241a.808.808 0 00-.259.622.78.78 0 00.205.545c.131.145.327.241.582.282.141.018.272.036.39.055.259.045.386.177.386.395-.005.268-.2.404-.582.409a1.31 1.31 0 01-.84-.295l-.295.336c.314.268.69.404 1.126.404.677-.009 1.022-.295 1.036-.858a.836.836 0 00-.195-.55c-.131-.154-.336-.254-.613-.295zM96.048 21.696h-1.167v-1.267h-.449v2.952h.449v-1.29h1.167v1.29h.45v-2.952h-.45v1.267zM99.609 23.381h1.885v-.422h-1.439v-.868h1.226v-.395h-1.226v-.845h1.439v-.422h-1.885v2.952zM106.449 21.251c-.01-.273-.105-.481-.296-.631-.154-.132-.354-.195-.6-.195H104.4v2.952h.449v-1.263h.573l.609 1.263h.531l-.686-1.308c.377-.141.568-.413.573-.818zm-1.599.473v-.895h.7a.52.52 0 01.327.091c.095.068.145.182.15.336 0 .127-.04.236-.122.323-.081.095-.209.145-.377.145h-.677zM109.419 23.381h1.885v-.422h-1.44v-.868h1.226v-.395h-1.226v-.845h1.44v-.422h-1.885v2.952z"/></symbol><symbol id="icon-mouse" viewBox="0 0 32 32"><path fill="var(--color1, #fff)" opacity=".8" d="M15.975 0c-5.19 0-9.413 4.222-9.413 9.413v13.175c0 5.19 4.222 9.413 9.413 9.413s9.413-4.222 9.413-9.413V9.413c0-5.19-4.222-9.413-9.413-9.413zm7.493 22.587c0 4.131-3.361 7.493-7.493 7.493s-7.493-3.361-7.493-7.493V9.412c0-4.131 3.361-7.493 7.493-7.493s7.493 3.361 7.493 7.493v13.175z"/><path fill="var(--color1, #fff)" opacity=".8" d="M15.975 6.366a.96.96 0 00-.96.96v4.418a.96.96 0 001.92 0V7.326a.96.96 0 00-.96-.96z"/></symbol><symbol id="icon-placeholder" viewBox="0 0 32 32"><path fill="var(--color2, #c8a35f)" d="M15.978 0C9.511 0 4.25 5.261 4.25 11.728c0 2.971 1.872 7.168 5.564 12.475a83.531 83.531 0 005.464 7.008l.7.789.7-.789c.111-.126 2.766-3.128 5.464-7.008 3.692-5.307 5.564-9.505 5.564-12.475C27.706 5.261 22.445 0 15.978 0zm4.638 23.12a84.725 84.725 0 01-4.639 6.034 85.105 85.105 0 01-4.628-6.019C7.928 18.218 6.12 14.273 6.12 11.728c0-5.435 4.422-9.857 9.857-9.857s9.857 4.422 9.857 9.857c0 2.542-1.804 6.481-5.218 11.392z"/><path fill="var(--color2, #c8a35f)" d="M15.978 4.334c-3.817 0-6.922 3.105-6.922 6.922s3.105 6.922 6.922 6.922c3.817 0 6.922-3.105 6.922-6.922s-3.105-6.922-6.922-6.922zm0 11.973c-2.785 0-5.051-2.266-5.051-5.051s2.266-5.051 5.051-5.051 5.051 2.266 5.051 5.051-2.266 5.051-5.051 5.051z"/></symbol></defs></svg>